<svg width="103" height="14" fill="none" xmlns="http://www.w3.org/2000/svg"><path d="M13.5 7.421v.756c0 1.644-.564 3.012-1.692 4.104-1.128 1.08-2.622 1.62-4.482 1.62-1.92 0-3.51-.63-4.77-1.89C1.308 10.739.684 9.191.684 7.367c0-1.824.624-3.366 1.872-4.626C3.816 1.469 5.394.833 7.29.833a6.27 6.27 0 0 1 3.204.846c.972.552 1.722 1.284 2.25 2.196l-1.44.846c-.36-.684-.906-1.23-1.638-1.638a4.664 4.664 0 0 0-2.394-.63c-1.44 0-2.622.474-3.546 1.422-.924.936-1.386 2.1-1.386 3.492s.462 2.556 1.386 3.492c.936.936 2.142 1.404 3.618 1.404 1.26 0 2.28-.306 3.06-.918a3.814 3.814 0 0 0 1.422-2.412H7.2V7.421h6.3Zm2.971 2.466c.157.804.523 1.428 1.099 1.872.587.444 1.308.666 2.16.666 1.188 0 2.052-.438 2.591-1.314l1.332.756c-.875 1.356-2.195 2.034-3.96 2.034-1.428 0-2.591-.444-3.492-1.332-.888-.9-1.332-2.034-1.332-3.402 0-1.356.438-2.484 1.314-3.384.877-.9 2.01-1.35 3.402-1.35 1.32 0 2.395.468 3.223 1.404.84.924 1.26 2.04 1.26 3.348 0 .228-.019.462-.055.702h-7.542Zm3.114-3.978c-.84 0-1.536.24-2.088.72-.552.468-.893 1.098-1.026 1.89h6.012c-.131-.852-.468-1.5-1.008-1.944a2.886 2.886 0 0 0-1.89-.666Zm10.915.27h-2.394v4.878c0 .444.084.762.252.954.18.18.45.276.81.288.36 0 .804-.012 1.332-.036v1.404c-1.368.18-2.37.072-3.006-.324-.636-.408-.954-1.17-.954-2.286V6.179h-1.782V4.667h1.782V2.615l1.566-.468v2.52H30.5v1.512Zm6.569-5.112h1.674v12.6h-1.674v-12.6Zm8.697 3.366c1.056 0 1.902.336 2.538 1.008.636.66.954 1.56.954 2.7v5.526h-1.566V8.231c0-.732-.198-1.296-.594-1.692-.396-.408-.942-.612-1.638-.612-.78 0-1.41.246-1.89.738-.48.48-.72 1.224-.72 2.232v4.77h-1.566v-9h1.566v1.296c.636-1.02 1.608-1.53 2.916-1.53ZM64.17 1.067v1.584h-3.726v11.016h-1.656V2.651H55.08V1.067h9.09Zm7.456 11.466c-.924.912-2.046 1.368-3.366 1.368-1.32 0-2.442-.456-3.366-1.368-.912-.912-1.368-2.034-1.368-3.366 0-1.332.456-2.454 1.368-3.366.924-.912 2.046-1.368 3.366-1.368 1.32 0 2.442.456 3.366 1.368.924.912 1.386 2.034 1.386 3.366 0 1.332-.462 2.454-1.386 3.366Zm-3.366-.162c.9 0 1.656-.306 2.268-.918.612-.612.918-1.374.918-2.286 0-.912-.306-1.674-.918-2.286-.612-.612-1.368-.918-2.268-.918-.888 0-1.638.306-2.25.918-.612.612-.918 1.374-.918 2.286 0 .912.306 1.674.918 2.286.612.612 1.362.918 2.25.918Zm12.808-7.704h1.566v9h-1.566v-1.296c-.636 1.02-1.608 1.53-2.916 1.53-1.056 0-1.902-.33-2.538-.99-.636-.672-.954-1.578-.954-2.718V4.667h1.566v5.436c0 .732.198 1.302.594 1.71.396.396.942.594 1.638.594.78 0 1.41-.24 1.89-.72.48-.492.72-1.242.72-2.25v-4.77Zm8.18 9.234c-1.356 0-2.484-.45-3.384-1.35-.9-.912-1.35-2.04-1.35-3.384 0-1.344.45-2.466 1.35-3.366.9-.912 2.028-1.368 3.384-1.368.888 0 1.686.216 2.394.648.708.42 1.236.99 1.584 1.71l-1.314.756a2.653 2.653 0 0 0-1.062-1.152 2.994 2.994 0 0 0-1.602-.432c-.9 0-1.656.306-2.268.918-.6.612-.9 1.374-.9 2.286 0 .9.3 1.656.9 2.268.612.612 1.368.918 2.268.918.6 0 1.14-.138 1.62-.414.48-.288.846-.672 1.098-1.152l1.332.774a4.44 4.44 0 0 1-1.656 1.71c-.72.42-1.518.63-2.394.63Zm10.078-9.468c1.056 0 1.902.336 2.538 1.008.636.66.954 1.56.954 2.7v5.526h-1.566V8.231c0-.732-.198-1.296-.594-1.692-.396-.408-.942-.612-1.638-.612-.78 0-1.41.246-1.89.738-.48.48-.72 1.224-.72 2.232v4.77h-1.566v-12.6h1.566v4.896c.636-1.02 1.608-1.53 2.916-1.53Z" fill="#fff"/></svg>